<svg version="1.1" xmlns="http://www.w3.org/2000/svg" xmlns:xlink="http://www.w3.org/1999/xlink" width="740" height="540"><defs/><g><text fill="#eeeeee" stroke="none" font-family="Arial" font-size="24px" font-style="normal" font-weight="normal" text-decoration="none" x="0" y="0"></text><text fill="#eeeeee" stroke="none" font-family="Arial" font-size="24px" font-style="normal" font-weight="normal" text-decoration="none" x="0" y="30"></text><text fill="#eeeeee" stroke="none" font-family="Arial" font-size="24px" font-style="normal" font-weight="normal" text-decoration="none" x="0" y="60"></text><text fill="#eeeeee" stroke="none" font-family="Arial" font-size="24px" font-style="normal" font-weight="normal" text-decoration="none" x="0" y="90"></text><text fill="#eeeeee" stroke="none" font-family="Arial" font-size="24px" font-style="normal" font-weight="normal" text-decoration="none" x="0" y="120"></text><text fill="#eeeeee" stroke="none" font-family="Arial" font-size="24px" font-style="normal" font-weight="normal" text-decoration="none" x="0" y="150"></text><text fill="#eeeeee" stroke="none" font-family="Arial" font-size="24px" font-style="normal" font-weight="normal" text-decoration="none" x="0" y="180"></text><text fill="#eeeeee" stroke="none" font-family="Arial" font-size="24px" font-style="normal" font-weight="normal" text-decoration="none" x="0" y="210"></text><text fill="#eeeeee" stroke="none" font-family="Arial" font-size="24px" font-style="normal" font-weight="normal" text-decoration="none" x="0" y="240"></text><text fill="#eeeeee" stroke="none" font-family="Arial" font-size="24px" font-style="normal" font-weight="normal" text-decoration="none" x="0" y="270"></text><text fill="#eeeeee" stroke="none" font-family="Arial" font-size="24px" font-style="normal" font-weight="normal" text-decoration="none" x="0" y="300"></text><text fill="#eeeeee" stroke="none" font-family="Arial" font-size="24px" font-style="normal" font-weight="normal" text-decoration="none" x="0" y="330"></text><text fill="#eeeeee" stroke="none" font-family="Arial" font-size="24px" font-style="normal" font-weight="normal" text-decoration="none" x="0" y="360"></text><text fill="#eeeeee" stroke="none" font-family="Arial" font-size="24px" font-style="normal" font-weight="normal" text-decoration="none" x="0" y="390"></text><text fill="#eeeeee" stroke="none" font-family="Arial" font-size="24px" font-style="normal" font-weight="normal" text-decoration="none" x="0" y="420"></text><text fill="#eeeeee" stroke="none" font-family="Arial" font-size="24px" font-style="normal" font-weight="normal" text-decoration="none" x="0" y="450"></text><text fill="#eeeeee" stroke="none" font-family="Arial" font-size="24px" font-style="normal" font-weight="normal" text-decoration="none" x="0" y="480"></text><text fill="#eeeeee" stroke="none" font-family="Arial" font-size="24px" font-style="normal" font-weight="normal" text-decoration="none" x="0" y="510"></text><text fill="#eeeeee" stroke="none" font-family="Arial" font-size="24px" font-style="normal" font-weight="normal" text-decoration="none" x="200" y="0"></text><text fill="#eeeeee" stroke="none" font-family="Arial" font-size="24px" font-style="normal" font-weight="normal" text-decoration="none" x="200" y="30"></text><text fill="#eeeeee" stroke="none" font-family="Arial" font-size="24px" font-style="normal" font-weight="normal" text-decoration="none" x="200" y="60"></text><text fill="#eeeeee" stroke="none" font-family="Arial" font-size="24px" font-style="normal" font-weight="normal" text-decoration="none" x="200" y="90"></text><text fill="#eeeeee" stroke="none" font-family="Arial" font-size="24px" font-style="normal" font-weight="normal" text-decoration="none" x="200" y="120"></text><text fill="#eeeeee" stroke="none" font-family="Arial" font-size="24px" font-style="normal" font-weight="normal" text-decoration="none" x="200" y="150"></text><text fill="#eeeeee" stroke="none" font-family="Arial" font-size="24px" font-style="normal" font-weight="normal" text-decoration="none" x="200" y="180"></text><text fill="#eeeeee" stroke="none" font-family="Arial" font-size="24px" font-style="normal" font-weight="normal" text-decoration="none" x="200" y="210"></text><text fill="#eeeeee" stroke="none" font-family="Arial" font-size="24px" font-style="normal" font-weight="normal" text-decoration="none" x="200" y="240"></text><text fill="#eeeeee" stroke="none" font-family="Arial" font-size="24px" font-style="normal" font-weight="normal" text-decoration="none" x="200" y="270"></text><text fill="#eeeeee" stroke="none" font-family="Arial" font-size="24px" font-style="normal" font-weight="normal" text-decoration="none" x="200" y="300"></text><text fill="#eeeeee" stroke="none" font-family="Arial" font-size="24px" font-style="normal" font-weight="normal" text-decoration="none" x="200" y="330"></text><text fill="#eeeeee" stroke="none" font-family="Arial" font-size="24px" font-style="normal" font-weight="normal" text-decoration="none" x="200" y="360"></text><text fill="#eeeeee" stroke="none" font-family="Arial" font-size="24px" font-style="normal" font-weight="normal" text-decoration="none" x="200" y="390"></text><text fill="#eeeeee" stroke="none" font-family="Arial" font-size="24px" font-style="normal" font-weight="normal" text-decoration="none" x="200" y="420"></text><text fill="#eeeeee" stroke="none" font-family="Arial" font-size="24px" font-style="normal" font-weight="normal" text-decoration="none" x="200" y="450"></text><text fill="#eeeeee" stroke="none" font-family="Arial" font-size="24px" font-style="normal" font-weight="normal" text-decoration="none" x="200" y="480"></text><text fill="#eeeeee" stroke="none" font-family="Arial" font-size="24px" font-style="normal" font-weight="normal" text-decoration="none" x="200" y="510"></text><text fill="#eeeeee" stroke="none" font-family="Arial" font-size="24px" font-style="normal" font-weight="normal" text-decoration="none" x="400" y="0"></text><text fill="#eeeeee" stroke="none" font-family="Arial" font-size="24px" font-style="normal" font-weight="normal" text-decoration="none" x="400" y="30"></text><text fill="#eeeeee" stroke="none" font-family="Arial" font-size="24px" font-style="normal" font-weight="normal" text-decoration="none" x="400" y="60"></text><text fill="#eeeeee" stroke="none" font-family="Arial" font-size="24px" font-style="normal" font-weight="normal" text-decoration="none" x="400" y="90"></text><text fill="#eeeeee" stroke="none" font-family="Arial" font-size="24px" font-style="normal" font-weight="normal" text-decoration="none" x="400" y="120"></text><text fill="#eeeeee" stroke="none" font-family="Arial" font-size="24px" font-style="normal" font-weight="normal" text-decoration="none" x="400" y="150"></text><text fill="#eeeeee" stroke="none" font-family="Arial" font-size="24px" font-style="normal" font-weight="normal" text-decoration="none" x="400" y="180"></text><text fill="#eeeeee" stroke="none" font-family="Arial" font-size="24px" font-style="normal" font-weight="normal" text-decoration="none" x="400" y="210"></text><text fill="#eeeeee" stroke="none" font-family="Arial" font-size="24px" font-style="normal" font-weight="normal" text-decoration="none" x="400" y="240"></text><text fill="#eeeeee" stroke="none" font-family="Arial" font-size="24px" font-style="normal" font-weight="normal" text-decoration="none" x="400" y="270"></text><text fill="#eeeeee" stroke="none" font-family="Arial" font-size="24px" font-style="normal" font-weight="normal" text-decoration="none" x="400" y="300"></text><text fill="#eeeeee" stroke="none" font-family="Arial" font-size="24px" font-style="normal" font-weight="normal" text-decoration="none" x="400" y="330"></text><text fill="#eeeeee" stroke="none" font-family="Arial" font-size="24px" font-style="normal" font-weight="normal" text-decoration="none" x="400" y="360"></text><text fill="#eeeeee" stroke="none" font-family="Arial" font-size="24px" font-style="normal" font-weight="normal" text-decoration="none" x="400" y="390"></text><text fill="#eeeeee" stroke="none" font-family="Arial" font-size="24px" font-style="normal" font-weight="normal" text-decoration="none" x="400" y="420"></text><text fill="#eeeeee" stroke="none" font-family="Arial" font-size="24px" font-style="normal" font-weight="normal" text-decoration="none" x="400" y="450"></text><text fill="#eeeeee" stroke="none" font-family="Arial" font-size="24px" font-style="normal" font-weight="normal" text-decoration="none" x="400" y="480"></text><text fill="#eeeeee" stroke="none" font-family="Arial" font-size="24px" font-style="normal" font-weight="normal" text-decoration="none" x="400" y="510"></text><text fill="#eeeeee" stroke="none" font-family="Arial" font-size="24px" font-style="normal" font-weight="normal" text-decoration="none" x="600" y="0"></text><text fill="#eeeeee" stroke="none" font-family="Arial" font-size="24px" font-style="normal" font-weight="normal" text-decoration="none" x="600" y="30"></text><text fill="#eeeeee" stroke="none" font-family="Arial" font-size="24px" font-style="normal" font-weight="normal" text-decoration="none" x="600" y="60"></text><text fill="#eeeeee" stroke="none" font-family="Arial" font-size="24px" font-style="normal" font-weight="normal" text-decoration="none" x="600" y="90"></text><text fill="#eeeeee" stroke="none" font-family="Arial" font-size="24px" font-style="normal" font-weight="normal" text-decoration="none" x="600" y="120"></text><text fill="#eeeeee" stroke="none" font-family="Arial" font-size="24px" font-style="normal" font-weight="normal" text-decoration="none" x="600" y="150"></text><text fill="#eeeeee" stroke="none" font-family="Arial" font-size="24px" font-style="normal" font-weight="normal" text-decoration="none" x="600" y="180"></text><text fill="#eeeeee" stroke="none" font-family="Arial" font-size="24px" font-style="normal" font-weight="normal" text-decoration="none" x="600" y="210"></text><text fill="#eeeeee" stroke="none" font-family="Arial" font-size="24px" font-style="normal" font-weight="normal" text-decoration="none" x="600" y="240"></text><text fill="#eeeeee" stroke="none" font-family="Arial" font-size="24px" font-style="normal" font-weight="normal" text-decoration="none" x="600" y="270"></text><text fill="#eeeeee" stroke="none" font-family="Arial" font-size="24px" font-style="normal" font-weight="normal" text-decoration="none" x="600" y="300"></text><text fill="#eeeeee" stroke="none" font-family="Arial" font-size="24px" font-style="normal" font-weight="normal" text-decoration="none" x="600" y="330"></text><text fill="#eeeeee" stroke="none" font-family="Arial" font-size="24px" font-style="normal" font-weight="normal" text-decoration="none" x="600" y="360"></text><text fill="#eeeeee" stroke="none" font-family="Arial" font-size="24px" font-style="normal" font-weight="normal" text-decoration="none" x="600" y="390"></text><text fill="#eeeeee" stroke="none" font-family="Arial" font-size="24px" font-style="normal" font-weight="normal" text-decoration="none" x="600" y="420"></text><text fill="#eeeeee" stroke="none" font-family="Arial" font-size="24px" font-style="normal" font-weight="normal" text-decoration="none" x="600" y="450"></text><text fill="#eeeeee" stroke="none" font-family="Arial" font-size="24px" font-style="normal" font-weight="normal" text-decoration="none" x="600" y="480"></text><text fill="#eeeeee" stroke="none" font-family="Arial" font-size="24px" font-style="normal" font-weight="normal" text-decoration="none" x="600" y="510"></text><g transform="translate(-22,-38) scale(1,1)"><rect fill="#C0C0C0" stroke="none" x="135" y="55" width="624" height="520" opacity="0.2"/></g><g transform="translate(-22,-38) scale(1,1)"><rect fill="#ffffff" stroke="none" x="128" y="48" width="624" height="520"/></g><g transform="translate(-22,-38) scale(1,1)"><path fill="none" stroke="#000000" d="M 128 48 L 752 48 L 752 568 L 128 568 L 128 48 Z Z" stroke-miterlimit="10"/></g><g transform="translate(-22,-38) scale(1,1)"><g><path fill="none" stroke="none"/><text fill="#000000" stroke="none" font-family="Arial" font-size="13px" font-style="normal" font-weight="bold" text-decoration="none" x="387.974609375" y="67.5">Createur de maps</text></g></g><g transform="translate(-22,-38) scale(1,1)"><path fill="#ffffff" stroke="none" d="M 58.88298313210227 241.68 C 58.88298313210227 236.886167936 62.768825457047726 233 67.562255859375 233 C 72.35568626170227 233 76.24152858664773 236.886167936 76.24152858664773 241.68 C 76.24152858664773 246.47383206400002 72.35568626170227 250.36 67.562255859375 250.36 C 62.768825457047726 250.36 58.88298313210227 246.47383206400002 58.88298313210227 241.68 Z"/></g><g transform="translate(-22,-38) scale(1,1)"><path fill="none" stroke="#000000" d="M 58.88298313210227 241.68 C 58.88298313210227 236.886167936 62.768825457047726 233 67.562255859375 233 C 72.35568626170227 233 76.24152858664773 236.886167936 76.24152858664773 241.68 C 76.24152858664773 246.47383206400002 72.35568626170227 250.36 67.562255859375 250.36 C 62.768825457047726 250.36 58.88298313210227 246.47383206400002 58.88298313210227 241.68 Z" stroke-miterlimit="10"/></g><g transform="translate(-22,-38) scale(1,1)"><path fill="none" stroke="#000000" d="M 67.562255859375 250.36 L 67.562255859375 267.64" stroke-miterlimit="10"/></g><g transform="translate(-22,-38) scale(1,1)"><path fill="none" stroke="#000000" d="M 58.37243767755682 256.84 L 76.75207404119318 256.84" stroke-miterlimit="10"/></g><g transform="translate(-22,-38) scale(1,1)"><path fill="none" stroke="#000000" d="M 67.562255859375 267.64 L 54.798619495738635 285" stroke-miterlimit="10"/></g><g transform="translate(-22,-38) scale(1,1)"><path fill="none" stroke="#000000" d="M 67.562255859375 267.64 L 80.32589222301137 285" stroke-miterlimit="10"/></g><g transform="translate(-22,-38) scale(1,1)"><g><path fill="none" stroke="none"/><text fill="#000000" stroke="none" font-family="Arial" font-size="13px" font-style="normal" font-weight="bold" text-decoration="none" x="39.74365234375" y="305.5">utilisateur</text></g></g><g transform="translate(-22,-38) scale(1,1)"><path fill="#C0C0C0" stroke="none" d="M 159 88 C 159 78.6111584 181.6096176 71 209.5 71 C 237.3903824 71 260 78.6111584 260 88 C 260 97.3888416 237.3903824 105 209.5 105 C 181.6096176 105 159 97.3888416 159 88 Z" opacity="0.2"/></g><g transform="translate(-22,-38) scale(1,1)"><path fill="#ffffff" stroke="none" d="M 152 81 C 152 71.6111584 174.6096176 64 202.5 64 C 230.3903824 64 253 71.6111584 253 81 C 253 90.3888416 230.3903824 98 202.5 98 C 174.6096176 98 152 90.3888416 152 81 Z"/></g><g transform="translate(-22,-38) scale(1,1)"><path fill="none" stroke="#000000" d="M 152 81 C 152 71.6111584 174.6096176 64 202.5 64 C 230.3903824 64 253 71.6111584 253 81 C 253 90.3888416 230.3903824 98 202.5 98 C 174.6096176 98 152 90.3888416 152 81 Z" stroke-miterlimit="10"/></g><g transform="translate(-22,-38) scale(1,1)"><g><path fill="none" stroke="none"/><text fill="#000000" stroke="none" font-family="Arial" font-size="13px" font-style="normal" font-weight="bold" text-decoration="none" x="187.69091796875" y="88">créer</text></g></g><g transform="translate(-22,-38) scale(1,1)"><path fill="#C0C0C0" stroke="none" d="M 167 144 C 167 134.6111584 189.6096176 127 217.5 127 C 245.3903824 127 268 134.6111584 268 144 C 268 153.3888416 245.3903824 161 217.5 161 C 189.6096176 161 167 153.3888416 167 144 Z" opacity="0.2"/></g><g transform="translate(-22,-38) scale(1,1)"><path fill="#ffffff" stroke="none" d="M 160 137 C 160 127.6111584 182.6096176 120 210.5 120 C 238.3903824 120 261 127.6111584 261 137 C 261 146.3888416 238.3903824 154 210.5 154 C 182.6096176 154 160 146.3888416 160 137 Z"/></g><g transform="translate(-22,-38) scale(1,1)"><path fill="none" stroke="#000000" d="M 160 137 C 160 127.6111584 182.6096176 120 210.5 120 C 238.3903824 120 261 127.6111584 261 137 C 261 146.3888416 238.3903824 154 210.5 154 C 182.6096176 154 160 146.3888416 160 137 Z" stroke-miterlimit="10"/></g><g transform="translate(-22,-38) scale(1,1)"><g><path fill="none" stroke="none"/><text fill="#000000" stroke="none" font-family="Arial" font-size="13px" font-style="normal" font-weight="bold" text-decoration="none" x="194.240478515625" y="144">éditer</text></g></g><g transform="translate(-22,-38) scale(1,1)"><path fill="#C0C0C0" stroke="none" d="M 199 192 C 199 182.6111584 227.8776304 175 263.5 175 C 299.1223696 175 328 182.6111584 328 192 C 328 201.3888416 299.1223696 209 263.5 209 C 227.8776304 209 199 201.3888416 199 192 Z" opacity="0.2"/></g><g transform="translate(-22,-38) scale(1,1)"><path fill="#ffffff" stroke="none" d="M 192 185 C 192 175.6111584 220.8776304 168 256.5 168 C 292.1223696 168 321 175.6111584 321 185 C 321 194.3888416 292.1223696 202 256.5 202 C 220.8776304 202 192 194.3888416 192 185 Z"/></g><g transform="translate(-22,-38) scale(1,1)"><path fill="none" stroke="#000000" d="M 192 185 C 192 175.6111584 220.8776304 168 256.5 168 C 292.1223696 168 321 175.6111584 321 185 C 321 194.3888416 292.1223696 202 256.5 202 C 220.8776304 202 192 194.3888416 192 185 Z" stroke-miterlimit="10"/></g><g transform="translate(-22,-38) scale(1,1)"><g><path fill="none" stroke="none"/><text fill="#000000" stroke="none" font-family="Arial" font-size="13px" font-style="normal" font-weight="bold" text-decoration="none" x="218.20458984375" y="192">exporter map</text></g></g><g transform="translate(-22,-38) scale(1,1)"><path fill="none" stroke="#000000" d="M 95 231 L 189 99" stroke-miterlimit="10"/></g><g transform="translate(-22,-38) scale(1,1)"><path fill="none" stroke="#000000" d="M 104 236 L 191 155" stroke-miterlimit="10"/></g><g transform="translate(-22,-38) scale(1,1)"><path fill="none" stroke="#000000" d="M 104 254 L 216 203" stroke-miterlimit="10"/></g><g transform="translate(-22,-38) scale(1,1)"><path fill="#C0C0C0" stroke="none" d="M 367 200 C 367 190.6111584 390.9527632 183 420.5 183 C 450.0472368 183 474 190.6111584 474 200 C 474 209.3888416 450.0472368 217 420.5 217 C 390.9527632 217 367 209.3888416 367 200 Z" opacity="0.2"/></g><g transform="translate(-22,-38) scale(1,1)"><path fill="#ffffff" stroke="none" d="M 360 193 C 360 183.6111584 383.9527632 176 413.5 176 C 443.0472368 176 467 183.6111584 467 193 C 467 202.3888416 443.0472368 210 413.5 210 C 383.9527632 210 360 202.3888416 360 193 Z"/></g><g transform="translate(-22,-38) scale(1,1)"><path fill="none" stroke="#000000" d="M 360 193 C 360 183.6111584 383.9527632 176 413.5 176 C 443.0472368 176 467 183.6111584 467 193 C 467 202.3888416 443.0472368 210 413.5 210 C 383.9527632 210 360 202.3888416 360 193 Z" stroke-miterlimit="10"/></g><g transform="translate(-22,-38) scale(1,1)"><g><path fill="none" stroke="none"/><text fill="#000000" stroke="none" font-family="Arial" font-size="13px" font-style="normal" font-weight="bold" text-decoration="none" x="382.786865234375" y="200">renseigner</text></g></g><g transform="translate(-22,-38) scale(1,1)"><path fill="none" stroke="#000000" d="M 322 188 L 359 190" stroke-miterlimit="10" stroke-dasharray="3"/></g><g transform="translate(-22,-38) scale(1,1)"><path fill="none" stroke="#000000" d="M 348.6249297380881 193.6548484319314 L 359 190 L 349.0793493520875 185.24808557294295" stroke-miterlimit="10"/></g><g transform="translate(-22,-38) scale(1,1)"><g><path fill="none" stroke="none"/><text fill="#000000" stroke="none" font-family="Arial" font-size="13px" font-style="normal" font-weight="normal" text-decoration="none" x="313.5" y="165.5">«include»</text></g></g><g transform="translate(-22,-38) scale(1,1)"><path fill="#C0C0C0" stroke="none" d="M 343 136 C 343 126.6111584 365.6096176 119 393.5 119 C 421.3903824 119 444 126.6111584 444 136 C 444 145.3888416 421.3903824 153 393.5 153 C 365.6096176 153 343 145.3888416 343 136 Z" opacity="0.2"/></g><g transform="translate(-22,-38) scale(1,1)"><path fill="#ffffff" stroke="none" d="M 336 129 C 336 119.6111584 358.6096176 112 386.5 112 C 414.3903824 112 437 119.6111584 437 129 C 437 138.3888416 414.3903824 146 386.5 146 C 358.6096176 146 336 138.3888416 336 129 Z"/></g><g transform="translate(-22,-38) scale(1,1)"><path fill="none" stroke="#000000" d="M 336 129 C 336 119.6111584 358.6096176 112 386.5 112 C 414.3903824 112 437 119.6111584 437 129 C 437 138.3888416 414.3903824 146 386.5 146 C 358.6096176 146 336 138.3888416 336 129 Z" stroke-miterlimit="10"/></g><g transform="translate(-22,-38) scale(1,1)"><g><path fill="none" stroke="none"/><text fill="#000000" stroke="none" font-family="Arial" font-size="13px" font-style="normal" font-weight="bold" text-decoration="none" x="359.405029296875" y="136">nom map</text></g></g><g transform="translate(-22,-38) scale(1,1)"><path fill="none" stroke="#000000" d="M 394 147 L 405 175" stroke-miterlimit="10"/></g><g transform="translate(-22,-38) scale(1,1)"><path fill="#FFFFFF" stroke="none" d="M 389.7319577801414 159.16059070632323 L 405 175 L 405.4040175324435 153.00371008934738"/></g><g transform="translate(-22,-38) scale(1,1)"><path fill="none" stroke="#000000" d="M 389.7319577801414 159.16059070632323 L 405 175 L 405.4040175324435 153.00371008934738 L 389.7319577801414 159.16059070632323" stroke-miterlimit="10"/></g><g transform="translate(-22,-38) scale(1,1)"><path fill="#C0C0C0" stroke="none" d="M 447 128 C 447 118.6111584 475.8776304 111 511.5 111 C 547.1223696 111 576 118.6111584 576 128 C 576 137.3888416 547.1223696 145 511.5 145 C 475.8776304 145 447 137.3888416 447 128 Z" opacity="0.2"/></g><g transform="translate(-22,-38) scale(1,1)"><path fill="#ffffff" stroke="none" d="M 440 121 C 440 111.6111584 468.8776304 104 504.5 104 C 540.1223696 104 569 111.6111584 569 121 C 569 130.3888416 540.1223696 138 504.5 138 C 468.8776304 138 440 130.3888416 440 121 Z"/></g><g transform="translate(-22,-38) scale(1,1)"><path fill="none" stroke="#000000" d="M 440 121 C 440 111.6111584 468.8776304 104 504.5 104 C 540.1223696 104 569 111.6111584 569 121 C 569 130.3888416 540.1223696 138 504.5 138 C 468.8776304 138 440 130.3888416 440 121 Z" stroke-miterlimit="10"/></g><g transform="translate(-22,-38) scale(1,1)"><g><path fill="none" stroke="none"/><text fill="#000000" stroke="none" font-family="Arial" font-size="13px" font-style="normal" font-weight="bold" text-decoration="none" x="466.20458984375" y="128">nom createur</text></g></g><g transform="translate(-22,-38) scale(1,1)"><path fill="none" stroke="#000000" d="M 481 139 L 436 175" stroke-miterlimit="10"/></g><g transform="translate(-22,-38) scale(1,1)"><path fill="#FFFFFF" stroke="none" d="M 446.612101844108 155.72869245613364 L 436 175 L 457.1307614232104 168.87701693001165"/></g><g transform="translate(-22,-38) scale(1,1)"><path fill="none" stroke="#000000" d="M 446.612101844108 155.72869245613364 L 436 175 L 457.1307614232104 168.87701693001165 L 446.612101844108 155.72869245613364" stroke-miterlimit="10"/></g><g transform="translate(-22,-38) scale(1,1)"><path fill="#C0C0C0" stroke="none" d="M 511 168 C 511 158.6111584 533.6096176 151 561.5 151 C 589.3903824 151 612 158.6111584 612 168 C 612 177.3888416 589.3903824 185 561.5 185 C 533.6096176 185 511 177.3888416 511 168 Z" opacity="0.2"/></g><g transform="translate(-22,-38) scale(1,1)"><path fill="#ffffff" stroke="none" d="M 504 161 C 504 151.6111584 526.6096176 144 554.5 144 C 582.3903824 144 605 151.6111584 605 161 C 605 170.3888416 582.3903824 178 554.5 178 C 526.6096176 178 504 170.3888416 504 161 Z"/></g><g transform="translate(-22,-38) scale(1,1)"><path fill="none" stroke="#000000" d="M 504 161 C 504 151.6111584 526.6096176 144 554.5 144 C 582.3903824 144 605 151.6111584 605 161 C 605 170.3888416 582.3903824 178 554.5 178 C 526.6096176 178 504 170.3888416 504 161 Z" stroke-miterlimit="10"/></g><g transform="translate(-22,-38) scale(1,1)"><g><path fill="none" stroke="none"/><text fill="#000000" stroke="none" font-family="Arial" font-size="13px" font-style="normal" font-weight="bold" text-decoration="none" x="536.799560546875" y="168">temps</text></g></g><g transform="translate(-22,-38) scale(1,1)"><path fill="none" stroke="#000000" d="M 503 173 L 468 181" stroke-miterlimit="10"/></g><g transform="translate(-22,-38) scale(1,1)"><path fill="#FFFFFF" stroke="none" d="M 485.9383701521499 168.26363959820318 L 468 181 L 489.6903099857659 184.6783763702732"/></g><g transform="translate(-22,-38) scale(1,1)"><path fill="none" stroke="#000000" d="M 485.9383701521499 168.26363959820318 L 468 181 L 489.6903099857659 184.6783763702732 L 485.9383701521499 168.26363959820318" stroke-miterlimit="10"/></g><g transform="translate(-22,-38) scale(1,1)"><path fill="#C0C0C0" stroke="none" d="M 151 256 C 151 246.6111584 206.0689696 239 274 239 C 341.9310304 239 397 246.6111584 397 256 C 397 265.3888416 341.9310304 273 274 273 C 206.0689696 273 151 265.3888416 151 256 Z" opacity="0.2"/></g><g transform="translate(-22,-38) scale(1,1)"><path fill="#ffffff" stroke="none" d="M 144 249 C 144 239.6111584 199.0689696 232 267 232 C 334.9310304 232 390 239.6111584 390 249 C 390 258.3888416 334.9310304 266 267 266 C 199.0689696 266 144 258.3888416 144 249 Z"/></g><g transform="translate(-22,-38) scale(1,1)"><path fill="none" stroke="#000000" d="M 144 249 C 144 239.6111584 199.0689696 232 267 232 C 334.9310304 232 390 239.6111584 390 249 C 390 258.3888416 334.9310304 266 267 266 C 199.0689696 266 144 258.3888416 144 249 Z" stroke-miterlimit="10"/></g><g transform="translate(-22,-38) scale(1,1)"><g><path fill="none" stroke="none"/><text fill="#000000" stroke="none" font-family="Arial" font-size="13px" font-style="normal" font-weight="bold" text-decoration="none" x="190.755126953125" y="256">sélectionner une catégorie</text></g></g><g transform="translate(-22,-38) scale(1,1)"><path fill="#C0C0C0" stroke="none" d="M 175 432 C 175 422.6111584 197.6096176 415 225.5 415 C 253.3903824 415 276 422.6111584 276 432 C 276 441.3888416 253.3903824 449 225.5 449 C 197.6096176 449 175 441.3888416 175 432 Z" opacity="0.2"/></g><g transform="translate(-22,-38) scale(1,1)"><path fill="#ffffff" stroke="none" d="M 168 425 C 168 415.6111584 190.6096176 408 218.5 408 C 246.3903824 408 269 415.6111584 269 425 C 269 434.3888416 246.3903824 442 218.5 442 C 190.6096176 442 168 434.3888416 168 425 Z"/></g><g transform="translate(-22,-38) scale(1,1)"><path fill="none" stroke="#000000" d="M 168 425 C 168 415.6111584 190.6096176 408 218.5 408 C 246.3903824 408 269 415.6111584 269 425 C 269 434.3888416 246.3903824 442 218.5 442 C 190.6096176 442 168 434.3888416 168 425 Z" stroke-miterlimit="10"/></g><g transform="translate(-22,-38) scale(1,1)"><g><path fill="none" stroke="none"/><text fill="#000000" stroke="none" font-family="Arial" font-size="13px" font-style="normal" font-weight="bold" text-decoration="none" x="195.37548828125" y="432">élément</text></g></g><g transform="translate(-22,-38) scale(1,1)"><path fill="#ffffff" stroke="none" d="M 408 232 L 581 232 L 591 242 L 591 281 L 408 281 L 408 232"/></g><g transform="translate(-22,-38) scale(1,1)"><path fill="none" stroke="#000000" d="M 408 232 L 581 232 L 591 242 L 591 281 L 408 281 L 408 232 L 408 232" stroke-miterlimit="10"/></g><g transform="translate(-22,-38) scale(1,1)"><path fill="none" stroke="#000000" d="M 581 232 L 581 242 L 591 242 L 581 232" stroke-miterlimit="10"/></g><g transform="translate(-22,-38) scale(1,1)"><g><path fill="none" stroke="none"/><text fill="#000000" stroke="none" font-family="Arial" font-size="13px" font-style="normal" font-weight="normal" text-decoration="none" x="413" y="250">catégorie : joueurs, meubles,</text><text fill="#000000" stroke="none" font-family="Arial" font-size="13px" font-style="normal" font-weight="normal" text-decoration="none" x="413" y="263">monstres, actions...</text></g></g><g transform="translate(-22,-38) scale(1,1)"><path fill="#C0C0C0" stroke="none" d="M 255 320 C 255 310.6111584 282.0867696 303 315.5 303 C 348.9132304 303 376 310.6111584 376 320 C 376 329.3888416 348.9132304 337 315.5 337 C 282.0867696 337 255 329.3888416 255 320 Z" opacity="0.2"/></g><g transform="translate(-22,-38) scale(1,1)"><path fill="#ffffff" stroke="none" d="M 248 313 C 248 303.6111584 275.0867696 296 308.5 296 C 341.9132304 296 369 303.6111584 369 313 C 369 322.3888416 341.9132304 330 308.5 330 C 275.0867696 330 248 322.3888416 248 313 Z"/></g><g transform="translate(-22,-38) scale(1,1)"><path fill="none" stroke="#000000" d="M 248 313 C 248 303.6111584 275.0867696 296 308.5 296 C 341.9132304 296 369 303.6111584 369 313 C 369 322.3888416 341.9132304 330 308.5 330 C 275.0867696 330 248 322.3888416 248 313 Z" stroke-miterlimit="10"/></g><g transform="translate(-22,-38) scale(1,1)"><g><path fill="none" stroke="none"/><text fill="#000000" stroke="none" font-family="Arial" font-size="13px" font-style="normal" font-weight="bold" text-decoration="none" x="273.451416015625" y="320">sélectionner</text></g></g><g transform="translate(-22,-38) scale(1,1)"><path fill="none" stroke="#000000" d="M 294 331 L 232 407" stroke-miterlimit="10"/></g><g transform="translate(-22,-38) scale(1,1)"><path fill="#FFFFFF" stroke="none" d="M 238.32458067330984 385.9287001040089 L 232 407 L 251.3718129271295 396.57249483738804"/></g><g transform="translate(-22,-38) scale(1,1)"><path fill="none" stroke="#000000" d="M 238.32458067330984 385.9287001040089 L 232 407 L 251.3718129271295 396.57249483738804 L 238.32458067330984 385.9287001040089" stroke-miterlimit="10"/></g><g transform="translate(-22,-38) scale(1,1)"><path fill="#ffffff" stroke="none" d="M 384 296 L 581 296 L 591 306 L 591 332 L 384 332 L 384 296"/></g><g transform="translate(-22,-38) scale(1,1)"><path fill="none" stroke="#000000" d="M 384 296 L 581 296 L 591 306 L 591 332 L 384 332 L 384 296 L 384 296" stroke-miterlimit="10"/></g><g transform="translate(-22,-38) scale(1,1)"><path fill="none" stroke="#000000" d="M 581 296 L 581 306 L 591 306 L 581 296" stroke-miterlimit="10"/></g><g transform="translate(-22,-38) scale(1,1)"><g><path fill="none" stroke="none"/><text fill="#000000" stroke="none" font-family="Arial" font-size="13px" font-style="normal" font-weight="normal" text-decoration="none" x="389" y="314">sélectionne une entité dans la</text><text fill="#000000" stroke="none" font-family="Arial" font-size="13px" font-style="normal" font-weight="normal" text-decoration="none" x="389" y="327">map ou dans une catégorie</text></g></g><g transform="translate(-22,-38) scale(1,1)"><path fill="#C0C0C0" stroke="none" d="M 151 320 C 151 310.6111584 173.6096176 303 201.5 303 C 229.3903824 303 252 310.6111584 252 320 C 252 329.3888416 229.3903824 337 201.5 337 C 173.6096176 337 151 329.3888416 151 320 Z" opacity="0.2"/></g><g transform="translate(-22,-38) scale(1,1)"><path fill="#ffffff" stroke="none" d="M 144 313 C 144 303.6111584 166.6096176 296 194.5 296 C 222.3903824 296 245 303.6111584 245 313 C 245 322.3888416 222.3903824 330 194.5 330 C 166.6096176 330 144 322.3888416 144 313 Z"/></g><g transform="translate(-22,-38) scale(1,1)"><path fill="none" stroke="#000000" d="M 144 313 C 144 303.6111584 166.6096176 296 194.5 296 C 222.3903824 296 245 303.6111584 245 313 C 245 322.3888416 222.3903824 330 194.5 330 C 166.6096176 330 144 322.3888416 144 313 Z" stroke-miterlimit="10"/></g><g transform="translate(-22,-38) scale(1,1)"><g><path fill="none" stroke="none"/><text fill="#000000" stroke="none" font-family="Arial" font-size="13px" font-style="normal" font-weight="bold" text-decoration="none" x="176.79638671875" y="320">placer</text></g></g><g transform="translate(-22,-38) scale(1,1)"><path fill="#C0C0C0" stroke="none" d="M 191 520 C 191 510.6111584 223.2354944 503 263 503 C 302.7645056 503 335 510.6111584 335 520 C 335 529.3888416 302.7645056 537 263 537 C 223.2354944 537 191 529.3888416 191 520 Z" opacity="0.2"/></g><g transform="translate(-22,-38) scale(1,1)"><path fill="#ffffff" stroke="none" d="M 184 513 C 184 503.6111584 216.2354944 496 256 496 C 295.7645056 496 328 503.6111584 328 513 C 328 522.3888416 295.7645056 530 256 530 C 216.2354944 530 184 522.3888416 184 513 Z"/></g><g transform="translate(-22,-38) scale(1,1)"><path fill="none" stroke="#000000" d="M 184 513 C 184 503.6111584 216.2354944 496 256 496 C 295.7645056 496 328 503.6111584 328 513 C 328 522.3888416 295.7645056 530 256 530 C 216.2354944 530 184 522.3888416 184 513 Z" stroke-miterlimit="10"/></g><g transform="translate(-22,-38) scale(1,1)"><g><path fill="none" stroke="none"/><text fill="#000000" stroke="none" font-family="Arial" font-size="13px" font-style="normal" font-weight="bold" text-decoration="none" x="214.095947265625" y="520">modifiers infos</text></g></g><g transform="translate(-22,-38) scale(1,1)"><path fill="none" stroke="#000000" d="M 246 313 L 247 313" stroke-miterlimit="10" stroke-dasharray="3"/></g><g transform="translate(-22,-38) scale(1,1)"><path fill="none" stroke="#000000" d="M 236.83732514237585 317.209517756016 L 247 313 L 236.83732514237585 308.790482243984" stroke-miterlimit="10"/></g><g transform="translate(-22,-38) scale(1,1)"><g><path fill="none" stroke="none"/><text fill="#000000" stroke="none" font-family="Arial" font-size="13px" font-style="normal" font-weight="normal" text-decoration="none" x="218.5" y="289.5">«include»</text></g></g><g transform="translate(-22,-38) scale(1,1)"><path fill="none" stroke="#000000" d="M 198 331 L 214 407" stroke-miterlimit="10"/></g><g transform="translate(-22,-38) scale(1,1)"><path fill="#FFFFFF" stroke="none" d="M 201.57431953756074 388.84504296217267 L 214 407 L 218.05121031775013 385.37622385055386"/></g><g transform="translate(-22,-38) scale(1,1)"><path fill="none" stroke="#000000" d="M 201.57431953756074 388.84504296217267 L 214 407 L 218.05121031775013 385.37622385055386 L 201.57431953756074 388.84504296217267" stroke-miterlimit="10"/></g><g transform="translate(-22,-38) scale(1,1)"><path fill="#ffffff" stroke="none" d="M 352 344 L 501 344 L 511 354 L 511 393 L 352 393 L 352 344"/></g><g transform="translate(-22,-38) scale(1,1)"><path fill="none" stroke="#000000" d="M 352 344 L 501 344 L 511 354 L 511 393 L 352 393 L 352 344 L 352 344" stroke-miterlimit="10"/></g><g transform="translate(-22,-38) scale(1,1)"><path fill="none" stroke="#000000" d="M 501 344 L 501 354 L 511 354 L 501 344" stroke-miterlimit="10"/></g><g transform="translate(-22,-38) scale(1,1)"><g><path fill="none" stroke="none"/><text fill="#000000" stroke="none" font-family="Arial" font-size="13px" font-style="normal" font-weight="normal" text-decoration="none" x="357" y="362">les infos sont par</text><text fill="#000000" stroke="none" font-family="Arial" font-size="13px" font-style="normal" font-weight="normal" text-decoration="none" x="357" y="375">exemple les actions, son</text><text fill="#000000" stroke="none" font-family="Arial" font-size="13px" font-style="normal" font-weight="normal" text-decoration="none" x="357" y="388">nom, musiques...</text></g></g><g transform="translate(-22,-38) scale(1,1)"><path fill="#C0C0C0" stroke="none" d="M 319 424 C 319 414.6111584 351.2354944 407 391 407 C 430.7645056 407 463 414.6111584 463 424 C 463 433.3888416 430.7645056 441 391 441 C 351.2354944 441 319 433.3888416 319 424 Z" opacity="0.2"/></g><g transform="translate(-22,-38) scale(1,1)"><path fill="#ffffff" stroke="none" d="M 312 417 C 312 407.6111584 344.2354944 400 384 400 C 423.7645056 400 456 407.6111584 456 417 C 456 426.3888416 423.7645056 434 384 434 C 344.2354944 434 312 426.3888416 312 417 Z"/></g><g transform="translate(-22,-38) scale(1,1)"><path fill="none" stroke="#000000" d="M 312 417 C 312 407.6111584 344.2354944 400 384 400 C 423.7645056 400 456 407.6111584 456 417 C 456 426.3888416 423.7645056 434 384 434 C 344.2354944 434 312 426.3888416 312 417 Z" stroke-miterlimit="10"/></g><g transform="translate(-22,-38) scale(1,1)"><g><path fill="none" stroke="none"/><text fill="#000000" stroke="none" font-family="Arial" font-size="13px" font-style="normal" font-weight="bold" text-decoration="none" x="342.089599609375" y="424">consulter infos</text></g></g><g transform="translate(-22,-38) scale(1,1)"><path fill="none" stroke="#000000" d="M 311 421 L 270 422" stroke-miterlimit="10"/></g><g transform="translate(-22,-38) scale(1,1)"><path fill="#FFFFFF" stroke="none" d="M 290.1140255192289 413.08787469725604 L 270 422 L 290.52458807796046 429.92093960525153"/></g><g transform="translate(-22,-38) scale(1,1)"><path fill="none" stroke="#000000" d="M 290.1140255192289 413.08787469725604 L 270 422 L 290.52458807796046 429.92093960525153 L 290.1140255192289 413.08787469725604" stroke-miterlimit="10"/></g><g transform="translate(-22,-38) scale(1,1)"><path fill="none" stroke="#000000" d="M 104 267 L 143 263" stroke-miterlimit="10"/></g><g transform="translate(-22,-38) scale(1,1)"><path fill="none" stroke="#000000" d="M 104 309 L 200 407" stroke-miterlimit="10"/></g><g transform="translate(-22,-38) scale(1,1)"><path fill="#ffffff" stroke="none" d="M 552 64 L 717 64 L 727 74 L 727 100 L 552 100 L 552 64"/></g><g transform="translate(-22,-38) scale(1,1)"><path fill="none" stroke="#000000" d="M 552 64 L 717 64 L 727 74 L 727 100 L 552 100 L 552 64 L 552 64" stroke-miterlimit="10"/></g><g transform="translate(-22,-38) scale(1,1)"><path fill="none" stroke="#000000" d="M 717 64 L 717 74 L 727 74 L 717 64" stroke-miterlimit="10"/></g><g transform="translate(-22,-38) scale(1,1)"><g><path fill="none" stroke="none"/><text fill="#000000" stroke="none" font-family="Arial" font-size="13px" font-style="normal" font-weight="normal" text-decoration="none" x="557" y="82">exporter rends la map</text><text fill="#000000" stroke="none" font-family="Arial" font-size="13px" font-style="normal" font-weight="normal" text-decoration="none" x="557" y="95">jouable</text></g></g><g transform="translate(-22,-38) scale(1,1)"><path fill="#C0C0C0" stroke="none" d="M 399 488 C 399 478.6111584 426.7583424 471 461 471 C 495.2416576 471 523 478.6111584 523 488 C 523 497.3888416 495.2416576 505 461 505 C 426.7583424 505 399 497.3888416 399 488 Z" opacity="0.2"/></g><g transform="translate(-22,-38) scale(1,1)"><path fill="#ffffff" stroke="none" d="M 392 481 C 392 471.6111584 419.7583424 464 454 464 C 488.2416576 464 516 471.6111584 516 481 C 516 490.3888416 488.2416576 498 454 498 C 419.7583424 498 392 490.3888416 392 481 Z"/></g><g transform="translate(-22,-38) scale(1,1)"><path fill="none" stroke="#000000" d="M 392 481 C 392 471.6111584 419.7583424 464 454 464 C 488.2416576 464 516 471.6111584 516 481 C 516 490.3888416 488.2416576 498 454 498 C 419.7583424 498 392 490.3888416 392 481 Z" stroke-miterlimit="10"/></g><g transform="translate(-22,-38) scale(1,1)"><g><path fill="none" stroke="none"/><text fill="#000000" stroke="none" font-family="Arial" font-size="13px" font-style="normal" font-weight="bold" text-decoration="none" x="418.595947265625" y="488">définir sortie</text></g></g><g transform="translate(-22,-38) scale(1,1)"><path fill="#C0C0C0" stroke="none" d="M 383 544 C 383 534.6111584 411.8776304 527 447.5 527 C 483.1223696 527 512 534.6111584 512 544 C 512 553.3888416 483.1223696 561 447.5 561 C 411.8776304 561 383 553.3888416 383 544 Z" opacity="0.2"/></g><g transform="translate(-22,-38) scale(1,1)"><path fill="#ffffff" stroke="none" d="M 376 537 C 376 527.6111584 404.8776304 520 440.5 520 C 476.1223696 520 505 527.6111584 505 537 C 505 546.3888416 476.1223696 554 440.5 554 C 404.8776304 554 376 546.3888416 376 537 Z"/></g><g transform="translate(-22,-38) scale(1,1)"><path fill="none" stroke="#000000" d="M 376 537 C 376 527.6111584 404.8776304 520 440.5 520 C 476.1223696 520 505 527.6111584 505 537 C 505 546.3888416 476.1223696 554 440.5 554 C 404.8776304 554 376 546.3888416 376 537 Z" stroke-miterlimit="10"/></g><g transform="translate(-22,-38) scale(1,1)"><g><path fill="none" stroke="none"/><text fill="#000000" stroke="none" font-family="Arial" font-size="13px" font-style="normal" font-weight="bold" text-decoration="none" x="402.56005859375" y="544">définir entrée</text></g></g><g transform="translate(-22,-38) scale(1,1)"><path fill="none" stroke="#000000" d="M 375 529 L 329 523" stroke-miterlimit="10" stroke-dasharray="3"/></g><g transform="translate(-22,-38) scale(1,1)"><path fill="none" stroke="#000000" d="M 339.6217681594539 520.14027253627 L 329 523 L 338.5328569756901 528.4885916117922" stroke-miterlimit="10"/></g><g transform="translate(-22,-38) scale(1,1)"><g><path fill="none" stroke="none"/><text fill="#000000" stroke="none" font-family="Arial" font-size="13px" font-style="normal" font-weight="normal" text-decoration="none" x="293.5" y="550.5">«extend»</text></g></g><g transform="translate(-22,-38) scale(1,1)"><path fill="#ffffff" stroke="none" d="M 512 512 L 709 512 L 719 522 L 719 561 L 512 561 L 512 512"/></g><g transform="translate(-22,-38) scale(1,1)"><path fill="none" stroke="#000000" d="M 512 512 L 709 512 L 719 522 L 719 561 L 512 561 L 512 512 L 512 512" stroke-miterlimit="10"/></g><g transform="translate(-22,-38) scale(1,1)"><path fill="none" stroke="#000000" d="M 709 512 L 709 522 L 719 522 L 709 512" stroke-miterlimit="10"/></g><g transform="translate(-22,-38) scale(1,1)"><g><path fill="none" stroke="none"/><text fill="#000000" stroke="none" font-family="Arial" font-size="13px" font-style="normal" font-weight="normal" text-decoration="none" x="517" y="530">les cases (éléments) peuvent être</text><text fill="#000000" stroke="none" font-family="Arial" font-size="13px" font-style="normal" font-weight="normal" text-decoration="none" x="517" y="543">définies comme les</text><text fill="#000000" stroke="none" font-family="Arial" font-size="13px" font-style="normal" font-weight="normal" text-decoration="none" x="517" y="556">emplacements de début et de fin</text></g></g><g transform="translate(-22,-38) scale(1,1)"><path fill="none" stroke="#000000" d="M 391 491 L 329 501" stroke-miterlimit="10" stroke-dasharray="3"/></g><g transform="translate(-22,-38) scale(1,1)"><path fill="none" stroke="#000000" d="M 338.3627187373131 495.2259634703298 L 329 501 L 339.70330229444505 503.5375815245479" stroke-miterlimit="10"/></g><g transform="translate(-22,-38) scale(1,1)"><g><path fill="none" stroke="none"/><text fill="#000000" stroke="none" font-family="Arial" font-size="13px" font-style="normal" font-weight="normal" text-decoration="none" x="344.5" y="514.5">«extend»</text></g></g><g transform="translate(-22,-38) scale(1,1)"><path fill="none" stroke="#000000" d="M 280 495 L 360 435" stroke-miterlimit="10" stroke-dasharray="3"/></g><g transform="translate(-22,-38) scale(1,1)"><path fill="none" stroke="#000000" d="M 354.39557076751026 444.46521911938726 L 360 435 L 349.3441494602911 437.7299907097617" stroke-miterlimit="10"/></g><g transform="translate(-22,-38) scale(1,1)"><g><path fill="none" stroke="none"/><text fill="#000000" stroke="none" font-family="Arial" font-size="13px" font-style="normal" font-weight="normal" text-decoration="none" x="271.5" y="459.5">«extend»</text></g></g><g transform="translate(-22,-38) scale(1,1)"><path fill="#C0C0C0" stroke="none" d="M 583 424 C 583 414.6111584 612.3253456 407 648.5 407 C 684.6746544 407 714 414.6111584 714 424 C 714 433.3888416 684.6746544 441 648.5 441 C 612.3253456 441 583 433.3888416 583 424 Z" opacity="0.2"/></g><g transform="translate(-22,-38) scale(1,1)"><path fill="#ffffff" stroke="none" d="M 576 417 C 576 407.6111584 605.3253456 400 641.5 400 C 677.6746544 400 707 407.6111584 707 417 C 707 426.3888416 677.6746544 434 641.5 434 C 605.3253456 434 576 426.3888416 576 417 Z"/></g><g transform="translate(-22,-38) scale(1,1)"><path fill="none" stroke="#000000" d="M 576 417 C 576 407.6111584 605.3253456 400 641.5 400 C 677.6746544 400 707 407.6111584 707 417 C 707 426.3888416 677.6746544 434 641.5 434 C 605.3253456 434 576 426.3888416 576 417 Z" stroke-miterlimit="10"/></g><g transform="translate(-22,-38) scale(1,1)"><g><path fill="none" stroke="none"/><text fill="#000000" stroke="none" font-family="Arial" font-size="13px" font-style="normal" font-weight="bold" text-decoration="none" x="603.56005859375" y="424">ajouterAction</text></g></g><g transform="translate(-22,-38) scale(1,1)"><path fill="none" stroke="#000000" d="M 575 417 L 457 417" stroke-miterlimit="10" stroke-dasharray="3"/></g><g transform="translate(-22,-38) scale(1,1)"><path fill="none" stroke="#000000" d="M 467.16267485762415 412.790482243984 L 457 417 L 467.16267485762415 421.209517756016" stroke-miterlimit="10"/></g><g transform="translate(-22,-38) scale(1,1)"><g><path fill="none" stroke="none"/><text fill="#000000" stroke="none" font-family="Arial" font-size="13px" font-style="normal" font-weight="normal" text-decoration="none" x="495.5" y="435.5">«extend»</text></g></g></g></svg>